<svg id="Layer_1" data-name="Layer 1" xmlns="http://www.w3.org/2000/svg" viewBox="0 0 150.99 101.88"><defs><style>.cls-1,.cls-2{fill:#717171;}.cls-2{stroke:#333;stroke-miterlimit:10;stroke-width:2px;}.cls-3{fill:#333;}</style></defs><title>arrows</title><rect class="cls-1" width="150.99" height="101.88"/><rect class="cls-2" x="257.67" y="100.25" width="44.21" height="44.21" transform="translate(197.84 -250.94) rotate(90)"/><rect class="cls-2" x="257.84" y="147.71" width="44.21" height="44.21" transform="translate(-94.16 356.24) rotate(-90)"/><rect class="cls-2" x="101.1" y="54.2" width="44.21" height="44.21"/><rect class="cls-2" x="6.01" y="54.2" width="44.21" height="44.21"/><polygon class="cls-3" points="85.04 34.72 75.05 34.66 65.95 34.7 65.95 34.7 75.51 18.18 85.04 34.72 85.04 34.72"/><polygon class="cls-3" points="65.95 69.31 75.94 69.37 85.04 69.32 85.04 69.32 75.48 85.84 65.95 69.31 65.95 69.31"/><polygon class="cls-3" points="116.84 85.84 116.91 75.86 116.86 66.76 116.86 66.76 133.38 76.31 116.84 85.84 116.84 85.84"/><polygon class="cls-3" points="34.41 66.76 34.35 76.75 34.39 85.84 34.39 85.84 17.87 76.29 34.41 66.76 34.41 66.76"/></svg>