<svg id="Layer_1" data-name="Layer 1" xmlns="http://www.w3.org/2000/svg" viewBox="0 0 150.99 101.88"><defs><style>.cls-1,.cls-2{fill:#292727;}.cls-2{stroke:#acaaaa;stroke-miterlimit:10;stroke-width:2px;}.cls-3{fill:#acaaaa;}</style></defs><title>landingwasd</title><rect class="cls-1" width="150.99" height="101.88"/><rect class="cls-2" x="43.52" y="6.73" width="44.21" height="44.21"/><rect class="cls-2" x="53.55" y="54.2" width="44.21" height="44.21"/><rect class="cls-2" x="101.1" y="54.2" width="44.21" height="44.21"/><rect class="cls-2" x="6.01" y="54.2" width="44.21" height="44.21"/><path class="cls-3" d="M229.82,162h4.24l4.88,15.64h-3.76l-2-7.91c-.39-1.57-.87-3.4-1.25-5.05h-.09c-.38,1.65-.82,3.48-1.22,5.05l-2,7.91H225Zm-1.65,9.17h7.49v2.75h-7.49Z" transform="translate(-203.83 -92.81)"/><path class="cls-3" d="M274.83,174.62l2-2.44a6.73,6.73,0,0,0,4.16,1.64c1.5,0,2.2-.59,2.2-1.35,0-1.13-.93-1.4-2.41-2l-2-.87a4.56,4.56,0,0,1-3.31-4.26c0-2.59,2.33-4.66,5.73-4.66a7.57,7.57,0,0,1,5.19,2l-1.78,2.24a5.58,5.58,0,0,0-3.61-1.23c-1.16,0-1.95.49-1.95,1.4s1,1.29,2.55,1.85l1.91.81c2.05.77,3.34,2,3.34,4.25,0,2.6-2.18,4.85-6,4.85A9,9,0,0,1,274.83,174.62Z" transform="translate(-203.83 -92.81)"/><path class="cls-3" d="M262.36,113H266l.46,8.33c0,1.34.07,2.52.09,3.93h.09c.22-1.41.51-2.61.77-3.92l1.05-4.37h2.27l1,4.37c.25,1.28.53,2.48.77,3.92h.1c0-1.44,0-2.62.08-3.92l.44-8.34h3.44l-1.94,15.65h-3.77l-.93-4.85a23,23,0,0,1-.42-3h-.08c-.1.94-.22,2-.41,3l-.9,4.85h-3.69Z" transform="translate(-203.83 -92.81)"/><path class="cls-3" d="M320.71,161.63H325c4.54,0,7.52,2.38,7.52,7.75s-3,7.9-7.32,7.9h-4.52Zm4.12,12.79c2.43,0,4.09-1.3,4.09-5s-1.66-4.89-4.09-4.89h-.58v9.93Z" transform="translate(-203.83 -92.81)"/></svg>