<svg id="Layer_1" data-name="Layer 1" xmlns="http://www.w3.org/2000/svg" viewBox="0 0 218.89 46.21"><defs><style>.cls-1,.cls-2{fill:#292727;}.cls-2{stroke:#acaaaa;stroke-miterlimit:10;stroke-width:2px;}.cls-3{fill:#acaaaa;}</style></defs><title>spacebar</title><rect class="cls-1" x="1" y="1" width="217.81" height="44.21"/><rect class="cls-2" x="1" y="1" width="216.89" height="44.21"/><path class="cls-3" d="M189.49,166.62l2-2.44a6.73,6.73,0,0,0,4.16,1.64c1.5,0,2.2-.59,2.2-1.35,0-1.13-.93-1.4-2.41-2l-2-.87a4.56,4.56,0,0,1-3.31-4.26c0-2.59,2.33-4.66,5.73-4.66a7.53,7.53,0,0,1,5.19,2.05l-1.78,2.23a5.63,5.63,0,0,0-3.61-1.23c-1.16,0-2,.49-2,1.4s1.05,1.29,2.55,1.85l1.91.81c2.05.77,3.34,2,3.34,4.25,0,2.6-2.18,4.85-6.05,4.85A9,9,0,0,1,189.49,166.62Z" transform="translate(-137.72 -138.01)"/><path class="cls-3" d="M204.47,152.94H210c3.4,0,6.13,1.23,6.13,5s-2.81,5.3-6.13,5.3h-2v5.31h-3.54Zm5.35,7.53c1.94,0,2.86-.87,2.86-2.49s-1-2.23-2.86-2.23H208v4.72Z" transform="translate(-137.72 -138.01)"/><path class="cls-3" d="M222.16,152.94h4.25l4.87,15.65h-3.76l-2-7.92c-.39-1.56-.87-3.4-1.24-5h-.1c-.38,1.65-.82,3.49-1.21,5l-2,7.92h-3.62Zm-1.65,9.17H228v2.76h-7.49Z" transform="translate(-137.72 -138.01)"/><path class="cls-3" d="M232.78,160.85c0-5.18,3.28-8.19,7.48-8.19a6.67,6.67,0,0,1,4.66,2L243,156.84a3.8,3.8,0,0,0-2.71-1.13c-2.23,0-3.85,1.89-3.85,5s1.62,5.09,4,5.09a3.8,3.8,0,0,0,2.82-1.39l1.95,2.15a6.46,6.46,0,0,1-5.13,2.29C236.14,168.87,232.78,166.13,232.78,160.85Z" transform="translate(-137.72 -138.01)"/><path class="cls-3" d="M248.1,152.94h10.37v3h-6.83v3.14h5.8v3h-5.8v3.6h7.07v3H248.1Z" transform="translate(-137.72 -138.01)"/><path class="cls-3" d="M262.05,152.94h5.26c3.25,0,5.73.89,5.73,3.88a3.44,3.44,0,0,1-2.67,3.38v.1c2.23.41,3.41,1.59,3.41,3.68,0,3.18-2.61,4.61-6,4.61h-5.71Zm5.1,6.28c1.72,0,2.44-.72,2.44-1.9s-.77-1.62-2.41-1.62h-1.59v3.52Zm.32,6.61c1.93,0,2.85-.7,2.85-2.12s-.9-1.94-2.85-1.94h-1.88v4.06Z" transform="translate(-137.72 -138.01)"/><path class="cls-3" d="M279.76,152.94H284l4.88,15.65h-3.76l-2-7.92c-.39-1.56-.87-3.4-1.24-5h-.1c-.38,1.65-.82,3.49-1.21,5l-2,7.92h-3.62Zm-1.65,9.17h7.49v2.76h-7.49Z" transform="translate(-137.72 -138.01)"/><path class="cls-3" d="M290.75,152.94h5.56c3.31,0,6,1.16,6,4.88s-2.73,5.14-6,5.14h-2v5.63h-3.54Zm5.27,7.21c1.86,0,2.86-.8,2.86-2.33s-1-2.07-2.86-2.07h-1.73v4.4Zm2.09-.39,5,8.83h-4L295.66,162Z" transform="translate(-137.72 -138.01)"/></svg>